<svg width="60" height="60" viewBox="0 0 60 60" fill="none" xmlns="http://www.w3.org/2000/svg">
<rect width="60" height="60" fill="#06092B"/>
<path d="M36.4198 42.6806C36.5674 42.9069 36.6511 43.1689 36.6621 43.4389C36.6731 43.7089 36.611 43.9768 36.4823 44.2144C36.3537 44.452 36.1632 44.6504 35.9311 44.7887C35.6989 44.9269 35.4338 45 35.1636 45H7.49982C7.22962 45 6.96445 44.9269 6.73232 44.7887C6.50019 44.6504 6.30973 44.452 6.18104 44.2144C6.05236 43.9768 5.99024 43.7089 6.00125 43.4389C6.01225 43.1689 6.09597 42.9069 6.24357 42.6806C8.35502 39.4305 11.4607 36.9503 15.0973 35.61C13.0869 34.2716 11.5606 32.3218 10.7441 30.0488C9.92761 27.7759 9.86423 25.3005 10.5634 22.9888C11.2625 20.6771 12.687 18.6517 14.6263 17.2122C16.5655 15.7726 18.9165 14.9954 21.3317 14.9954C23.7468 14.9954 26.0979 15.7726 28.0371 17.2122C29.9764 18.6517 31.4009 20.6771 32.1 22.9888C32.7992 25.3005 32.7358 27.7759 31.9193 30.0488C31.1027 32.3218 29.5764 34.2716 27.5661 35.61C31.2026 36.9503 34.3084 39.4305 36.4198 42.6806ZM52.9029 42.6525C50.7909 39.4161 47.6921 36.9465 44.0661 35.61C46.4394 34.0113 48.1143 31.5682 48.7499 28.7781C49.3855 25.988 48.934 23.0606 47.4872 20.5917C46.0405 18.1227 43.7072 16.2979 40.9625 15.4887C38.2177 14.6794 35.2677 14.9465 32.7129 16.2356C32.6153 16.2861 32.5298 16.3574 32.4628 16.4445C32.3957 16.5316 32.3486 16.6324 32.3248 16.7397C32.301 16.8471 32.3011 16.9583 32.3251 17.0656C32.3491 17.1729 32.3963 17.2736 32.4636 17.3606C34.3633 19.7303 35.4542 22.6459 35.5767 25.6806C35.6992 28.7152 34.8467 31.7093 33.1442 34.2244C33.0341 34.3887 32.9935 34.5899 33.0311 34.7841C33.0686 34.9783 33.1814 35.1498 33.3448 35.2612C35.5646 36.8105 37.4649 38.7732 38.9417 41.0419C39.5373 41.954 39.7805 43.0517 39.6261 44.13C39.6087 44.2373 39.6148 44.347 39.644 44.4517C39.6733 44.5563 39.7249 44.6534 39.7953 44.7362C39.8658 44.8189 39.9533 44.8853 40.052 44.9309C40.1506 44.9765 40.258 45 40.3667 45H51.6729C52.0032 45.0001 52.3243 44.8912 52.5864 44.6901C52.8485 44.4891 53.0369 44.2072 53.1223 43.8881C53.1745 43.6783 53.1819 43.4598 53.1441 43.247C53.1063 43.0341 53.0241 42.8315 52.9029 42.6525Z" fill="#FAFAFA"/>
</svg>
